<?xml version="1.0" standalone="no"?>
<!DOCTYPE svg PUBLIC "-//W3C//DTD SVG 20010904//EN"
 "http://www.w3.org/TR/2001/REC-SVG-20010904/DTD/svg10.dtd">
<svg version="1.0" xmlns="http://www.w3.org/2000/svg"
 width="514.000000pt" height="530.000000pt" viewBox="0 0 514.000000 530.000000"
 preserveAspectRatio="xMidYMid meet">
<metadata>
Created by potrace 1.16, written by Peter Selinger 2001-2019
</metadata>
<g transform="translate(0.000000,530.000000) scale(0.100000,-0.100000)"
fill="#000000" stroke="none">
<path d="M2420 4960 c0 -5 25 -10 55 -10 30 0 55 5 55 10 0 6 -25 10 -55 10
-30 0 -55 -4 -55 -10z"/>
<path d="M1620 2557 l0 -2324 -57 3 -58 3 50 -7 c28 -4 73 -6 100 -4 l50 4 -3
2324 -2 2324 -40 0 -40 0 0 -2323z"/>
<path d="M4760 2557 l0 -2324 -57 3 -58 3 50 -7 c28 -4 73 -6 100 -4 l50 4 -3
2324 -2 2324 -40 0 -40 0 0 -2323z"/>
<path d="M2420 4785 c0 -12 13 -15 55 -15 42 0 55 3 55 15 0 12 -13 15 -55 15
-42 0 -55 -3 -55 -15z"/>
<path d="M2420 4700 c0 -5 25 -10 55 -10 30 0 55 5 55 10 0 6 -25 10 -55 10
-30 0 -55 -4 -55 -10z"/>
<path d="M1928 1890 l-3 -1660 50 0 c36 0 46 3 35 10 -10 6 -11 10 -2 10 9 0
12 337 12 1650 l0 1650 -45 0 -45 0 -2 -1660z"/>
<path d="M3710 1393 l0 -1158 -57 1 -58 2 55 -7 c30 -3 75 -5 100 -3 l45 4 0
1159 0 1159 -42 0 -43 0 0 -1157z"/>
<path d="M2450 1385 l0 -1155 45 0 45 0 0 1155 0 1155 -45 0 -45 0 0 -1155z"/>
<path d="M1091 1228 l4 -992 -55 1 -55 1 50 -7 c28 -3 71 -4 98 -3 l47 4 0
994 0 994 -46 0 -47 0 4 -992z"/>
<path d="M2140 1228 l0 -993 -57 2 -58 1 52 -7 c29 -3 74 -4 100 -1 l48 5 0
993 0 992 -42 0 -43 0 0 -992z"/>
<path d="M4020 1225 l0 -995 45 0 45 0 0 995 0 995 -45 0 -45 0 0 -995z"/>
<path d="M358 1060 l-3 -830 48 0 47 0 0 830 0 830 -45 0 -45 0 -2 -830z"/>
<path d="M570 893 l0 -658 -57 2 -58 1 50 -6 c28 -4 74 -6 103 -4 l52 4 0 659
0 659 -45 0 -45 0 0 -657z"/>
<path d="M3190 892 l0 -659 -57 3 -58 3 50 -7 c28 -4 73 -6 100 -4 l50 4 -3
659 -2 659 -40 0 -40 0 0 -658z"/>
<path d="M4545 890 l0 -660 45 0 45 0 -3 660 -2 660 -43 0 -42 0 0 -660z"/>
<path d="M4240 737 c0 -381 -3 -496 -12 -506 -11 -11 -10 -13 5 -7 10 3 34 6
53 6 l34 0 0 500 0 500 -40 0 -40 0 0 -493z"/>
<path d="M2670 893 c0 -5 0 -151 0 -327 0 -244 -2 -322 -12 -334 -11 -13 -10
-15 5 -9 10 4 34 7 53 7 l34 0 0 335 0 335 -40 0 c-22 0 -40 -3 -40 -7z"/>
<path d="M1198 555 l-3 -325 50 1 c28 0 46 2 40 5 -7 3 -8 115 -5 324 l5 320
-42 0 -42 0 -3 -325z"/>
<path d="M2768 390 l-3 -160 45 0 45 0 0 160 0 160 -42 0 -42 0 -3 -160z"/>
<path d="M3290 390 l0 -160 45 0 45 0 0 160 0 160 -45 0 -45 0 0 -160z"/>
<path d="M3498 390 l-3 -160 47 0 46 0 1 160 2 160 -45 0 -45 0 -3 -160z"/>
<path d="M4338 390 l-3 -160 45 0 45 0 0 160 0 160 -42 0 -42 0 -3 -160z"/>
<path d="M3047 149 c4 -13 8 -18 11 -10 2 7 -1 18 -6 23 -8 8 -9 4 -5 -13z"/>
</g>
</svg>
